<svg id="Layer_1" viewBox="0 0 100 100" xmlns="http://www.w3.org/2000/svg" data-name="Layer 1"><path d="m94.49 66.31c-2.08-3.7-7.57-13.81-8.01-16.19-.85-4.55-3.24-7.92-6.58-9.54v-34.57c0-.55-.45-1-1-1s-1 .45-1 1v33.83c-.78-.2-1.6-.33-2.46-.35-.55-.03-1.01.42-1.03.97s.42 1.01.97 1.03c5.52.17 8.34 4.76 9.13 9 .51 2.75 5.88 12.57 7.7 15.85-1.48.57-2.89.61-4.2.12-2.07-.76-3.45-2.67-4.01-4.07-2.09-5.25-3.21-7.26-8.47-10.88-.46-.31-1.08-.2-1.39.26-.31.45-.2 1.08.25 1.39 3.2 2.21 4.68 3.63 5.94 5.94v26.48c0 1.2-.98 2.18-2.18 2.18s-2.18-.98-2.18-2.18v-18.86c0-.55-.45-1-1-1s-1 .45-1 1v24.07c0 1.2-.98 2.18-2.18 2.18s-2.18-.98-2.18-2.18v-24.07c0-.55-.45-1-1-1s-1 .45-1 1v20.88c0 1.2-.98 2.18-2.18 2.18s-2.18-.98-2.18-2.18v-20.88c0-.55-.45-1-1-1s-1 .45-1 1v14.95c0 1.06-.86 1.92-1.92 1.92s-1.92-.86-1.92-1.92v-29.84c-.08-5.42.35-9.62 6.4-10.36.55-.07.94-.57.87-1.11-.07-.55-.56-.94-1.11-.87-1.11.14-2.06.39-2.9.72v-14.31h2.72c.48 2.83 2.94 5 5.91 5 3.31 0 6-2.69 6-6s-2.69-6-6-6c-2.97 0-5.43 2.17-5.91 5h-2.72v-17.89c0-.55-.45-1-1-1s-1 .45-1 1v17.9h-3.3c-4.69 0-8.5 3.81-8.5 8.5v57.39c0 1.76-1.43 3.19-3.18 3.19s-3.19-1.43-3.19-3.19v-1.41c0-5.13-4.17-9.3-9.3-9.3-3.66 0-6.64-2.98-6.64-6.64v-15.08h5.22v5.46h-1.24c-.55 0-1 .45-1 1v5.02c0 .55.45 1 1 1h9.02c.55 0 1-.45 1-1v-5.02c0-.55-.45-1-1-1h-1.24v-5.46h.45c2.65 0 4.81-2.16 4.81-4.81v-36.84c0-2.65-2.16-4.81-4.81-4.81h-6.32v-2.55c0-1.84-1.5-3.34-3.34-3.34h-7.12c-1.84 0-3.34 1.5-3.34 3.34v2.55h-6.32c-2.65 0-4.81 2.16-4.81 4.81v36.86c0 2.65 2.16 4.81 4.81 4.81h.45v5.46h-1.24c-.55 0-1 .45-1 1v5.02c0 .55.45 1 1 1h9.02c.55 0 1-.45 1-1v-5.02c0-.55-.45-1-1-1h-1.24v-5.46h5.22v15.08c0 4.76 3.88 8.64 8.64 8.64 4.02 0 7.3 3.27 7.3 7.3v1.41c0 2.86 2.33 5.19 5.19 5.19s5.18-2.33 5.18-5.19v-57.39c0-3.58 2.92-6.5 6.5-6.5h3.3v15.44s0 0 0 0c-3.36 2.64-3.31 7.36-3.27 10.51v29.81c0 2.16 1.77 3.92 3.93 3.92.7 0 1.35-.2 1.92-.52v2.53c0 2.31 1.88 4.18 4.18 4.18.82 0 1.57-.24 2.22-.65.18 2.14 1.96 3.84 4.15 3.84 2.31 0 4.18-1.88 4.18-4.18v-1.66c.64.39 1.38.63 2.18.63 2.31 0 4.18-1.88 4.18-4.18v-22.02c.83 1.79 2.5 3.86 4.98 4.78.83.31 1.68.46 2.56.46 1.37 0 2.79-.37 4.2-1.11.24-.13.42-.34.49-.6.08-.26.04-.54-.09-.77zm-25.21-45.4c2.21 0 4 1.79 4 4s-1.79 4-4 4c-1.86 0-3.41-1.28-3.86-3h3.86c.55 0 1-.45 1-1s-.45-1-1-1h-3.86c.45-1.72 2-3 3.86-3zm-32.71 46.95h-7.02v-3.02h7.02zm-2.24-5.02h-2.55v-5.46h2.55zm-15.68-54.48c0-.74.6-1.34 1.34-1.34h7.12c.74 0 1.34.6 1.34 1.34v2.55h-9.81v-2.55zm-11.12 44.21v-36.85c0-1.55 1.26-2.81 2.81-2.81h26.45c1.55 0 2.81 1.26 2.81 2.81v36.86c0 1.55-1.26 2.81-2.81 2.81h-26.46c-1.55 0-2.81-1.26-2.81-2.81zm10.04 15.29h-7.02v-3.02h7.02zm-2.24-5.02h-2.55v-5.46h2.55z"/><path d="m14.72 37.61h5.37v5.37c0 .55.45 1 1 1h4.94c.55 0 1-.45 1-1v-5.37h5.37c.55 0 1-.45 1-1v-4.94c0-.55-.45-1-1-1h-5.37v-5.37c0-.55-.45-1-1-1h-4.94c-.55 0-1 .45-1 1v5.37h-5.37c-.55 0-1 .45-1 1v4.94c0 .55.45 1 1 1zm1-4.94h5.37c.55 0 1-.45 1-1v-5.37h2.94v5.37c0 .55.45 1 1 1h5.37v2.94h-5.37c-.55 0-1 .45-1 1v5.37h-2.94v-5.37c0-.55-.45-1-1-1h-5.37z"/></svg>