<svg id="Layer_3" height="512" viewBox="0 0 64 64" width="512" xmlns="http://www.w3.org/2000/svg" data-name="Layer 3"><path d="m62 39h-8.59a13.991 13.991 0 0 0 -26.82 0h-3.59v-1a3 3 0 0 0 -3-3h-11v-22h9.8l-5.549 6.342a1 1 0 0 0 .749 1.658h26a1 1 0 0 0 .753-1.658l-5.553-6.342h6.8a1 1 0 0 0 1-1v-10a1 1 0 0 0 -1-1h-40a1 1 0 0 0 -1 1v60a1 1 0 0 0 1 1h56a1 1 0 0 0 1-1v-15h3a1 1 0 0 0 1-1v-6a1 1 0 0 0 -1-1zm-22-8a12 12 0 1 1 -12 12 12.013 12.013 0 0 1 12-12zm-13.84 14h-17.16v-4h17.16a12.58 12.58 0 0 0 0 4zm-6.16-8a1 1 0 0 1 1 1v1h-12v-2zm17.8-18h-21.6l5.25-6h11.096zm-34.8-16h38v8h-38zm0 58v-48h4v48zm54 0h-48v-14h17.59a13.991 13.991 0 0 0 26.82 0h3.59zm4-16h-7.16a12.58 12.58 0 0 0 0-4h7.16z"/><path d="m35.526 51.946a1 1 0 0 0 .449.106 1 1 0 0 0 .894-.553l2.768-5.536a1.8 1.8 0 0 0 .726 0l2.768 5.537a1 1 0 0 0 .894.553 1 1 0 0 0 .449-.106 9.954 9.954 0 0 0 5.526-8.947 1 1 0 0 0 -1-1h-6.184a2.992 2.992 0 0 0 -.565-.962l3.779-4.725a1 1 0 0 0 -.2-1.436 10 10 0 0 0 -11.666 0 1 1 0 0 0 -.2 1.436l3.779 4.725a2.992 2.992 0 0 0 -.565.962h-6.178a1 1 0 0 0 -1 1 9.954 9.954 0 0 0 5.526 8.946zm3.474-8.946a1 1 0 1 1 1 1 1 1 0 0 1 -1-1zm5.445 6.654-2.289-4.577a3.005 3.005 0 0 0 .66-1.077h5.122a7.942 7.942 0 0 1 -3.493 5.654zm-.677-13.714-3.288 4.109a2.376 2.376 0 0 0 -.96 0l-3.288-4.109a8.121 8.121 0 0 1 7.536 0zm-6.584 8.06a3.005 3.005 0 0 0 .66 1.077l-2.289 4.577a7.942 7.942 0 0 1 -3.493-5.654z"/><path d="m37 5h2v4h-2z"/><path d="m33 5h2v4h-2z"/><path d="m29 5h2v4h-2z"/></svg>